<svg version="1.1" xmlns="http://www.w3.org/2000/svg" viewBox="0 0 200 115">
<style type="text/css">
	.st0{fill:#4E4E4E;}
	.st1{fill:#8DC700;}
</style>
<g>
	<path class="st0" d="M0,24.7v59.2c0,10.1,2.6,17.7,7.6,22.7c5.1,4.9,12.8,7.5,23.2,7.5c9.5,0,17-1.8,22.6-7.5
		c5.6-5.6,8.3-13.6,8.3-22.7v-25L43.3,35.4v48.4c0,5.9-1,10.2-3,12.7c-1.9,2.5-5.1,3.8-9.5,3.8c-4.4,0-7.5-1.2-9.5-3.8
		c-1.9-2.6-2.9-6.8-2.9-12.7V24.7H0z"/>
	<polygon class="st0" points="93.5,80.6 103.4,92.4 132.6,92.4 112.6,68.1 99.8,68.1 	"/>
	<polygon class="st1" points="104.9,24.7 93.4,43.9 106.2,58.9 106.5,58.9 127.4,24.7 	"/>
	<polygon class="st1" points="77.8,68.1 55.4,113.2 77.2,113.2 99.8,68.1 	"/>
	<polygon class="st0" points="56.8,35.4 76.9,58.9 106.2,58.9 86.2,35.4 	"/>
	<path class="st0" d="M189.3,98h10.5v2.9h-6.6v2.8h6.2v2.9h-6.2v3.5h6.8v2.9h-10.7L189.3,98z M186.1,112.2c-0.7,0.4-1.4,0.6-2.2,0.8
		s-1.6,0.3-2.4,0.3c-2.5,0-4.5-0.7-5.9-2.1c-1.4-1.4-2.2-3.3-2.2-5.7s0.7-4.3,2.2-5.7c1.4-1.4,3.5-2.1,5.9-2.1
		c0.8,0,1.6,0.1,2.4,0.3c0.8,0.2,1.5,0.5,2.2,0.8v3.1c-0.7-0.5-1.4-0.8-2.1-1.1c-0.7-0.2-1.4-0.3-2.2-0.3c-1.4,0-2.5,0.4-3.3,1.3
		c-0.8,0.9-1.2,2.1-1.2,3.7s0.4,2.8,1.2,3.7c0.8,0.9,1.9,1.3,3.3,1.3c0.8,0,1.5-0.1,2.2-0.3c0.7-0.2,1.4-0.6,2.1-1.1V112.2z
		 M162.2,107.5h4.1l-2-6L162.2,107.5z M167.3,110.3h-6.1l-0.9,2.8h-3.9l5.6-15h4.6l5.6,15h-3.9L167.3,110.3z M150.5,98h3.9v15h-3.9
		V98z M147.3,112.2c-0.7,0.4-1.4,0.6-2.2,0.8c-0.8,0.2-1.6,0.3-2.4,0.3c-2.5,0-4.5-0.7-5.9-2.1c-1.4-1.4-2.2-3.3-2.2-5.7
		s0.7-4.3,2.2-5.7c1.4-1.4,3.5-2.1,5.9-2.1c0.8,0,1.6,0.1,2.4,0.3c0.8,0.2,1.5,0.5,2.2,0.8v3.1c-0.7-0.5-1.4-0.8-2.1-1.1
		c-0.7-0.2-1.4-0.3-2.2-0.3c-1.4,0-2.5,0.4-3.3,1.3c-0.8,0.9-1.2,2.1-1.2,3.7s0.4,2.8,1.2,3.7c0.8,0.9,1.9,1.3,3.3,1.3
		c0.8,0,1.5-0.1,2.2-0.3c0.7-0.2,1.4-0.6,2.1-1.1V112.2z M124.8,97.7c2.4,0,4.3,0.7,5.7,2.1c1.3,1.4,2,3.3,2,5.7
		c0,2.4-0.7,4.3-2,5.7c-1.4,1.4-3.3,2.1-5.7,2.1s-4.3-0.7-5.7-2.1c-1.4-1.4-2-3.3-2-5.7c0-2.5,0.7-4.3,2-5.7
		C120.5,98.4,122.3,97.7,124.8,97.7z M124.8,100.5c-1.2,0-2.1,0.4-2.8,1.3s-1,2.1-1,3.7c0,1.6,0.3,2.8,1,3.7s1.6,1.3,2.8,1.3
		s2.1-0.4,2.8-1.3c0.6-0.9,1-2.1,1-3.7c0-1.6-0.3-2.8-1-3.7S126,100.5,124.8,100.5z M113.5,98.5v3.2c-0.8-0.4-1.6-0.6-2.4-0.8
		c-0.8-0.2-1.5-0.3-2.2-0.3c-0.9,0-1.6,0.1-2,0.4s-0.7,0.6-0.7,1.2c0,0.4,0.1,0.7,0.4,0.9c0.3,0.2,0.8,0.4,1.6,0.6l1.6,0.3
		c1.7,0.3,2.9,0.8,3.6,1.5c0.7,0.7,1.1,1.6,1.1,2.9c0,1.7-0.5,2.9-1.5,3.7c-1,0.8-2.5,1.2-4.5,1.2c-0.9,0-1.9-0.1-2.9-0.3
		c-1-0.2-1.9-0.4-2.9-0.8v-3.3c1,0.5,1.9,0.9,2.8,1.2c0.9,0.3,1.7,0.4,2.6,0.4c0.8,0,1.5-0.1,1.9-0.4c0.5-0.3,0.7-0.7,0.7-1.2
		c0-0.5-0.2-0.8-0.5-1.1c-0.3-0.3-0.9-0.5-1.8-0.7l-1.5-0.3c-1.5-0.3-2.6-0.8-3.3-1.5s-1-1.6-1-2.9c0-1.5,0.5-2.7,1.4-3.5
		s2.4-1.2,4.2-1.2c0.8,0,1.7,0.1,2.6,0.2S112.6,98.2,113.5,98.5z M91.1,107.5h4.1l-2-6L91.1,107.5z M96.2,110.3h-6.1l-0.9,2.8h-3.9
		l5.6-15h4.6l5.6,15h-3.9L96.2,110.3z"/>
	<path class="st0" d="M98.9,13.8c0,3.6-1.3,7.2-3.6,9.8c-1.1,1.3-2.5,2.3-4,3c-1.5,0.7-3.1,1-4.7,1c-1.6,0-3.2-0.4-4.7-1
		c-1.5-0.7-2.9-1.7-4-3c-2.3-2.6-3.6-6.1-3.6-9.8s1.3-7.2,3.6-9.8c1.1-1.3,2.5-2.3,4-3s3.1-1,4.7-1c1.6,0,3.2,0.4,4.7,1
		c1.5,0.7,2.9,1.7,4,3C97.6,6.6,99,10.2,98.9,13.8z"/>
</g>
</svg>
