<svg width="218" height="345" viewBox="0 0 218 345" fill="none" xmlns="http://www.w3.org/2000/svg">
<path d="M81 232L147.5 215C143.5 211 140 203.5 140 195C140 157.5 217.5 152 217.5 80.5C217.5 32.5 176.5 0.499977 110.5 0.499977C69.5 0.499977 28 16.5 0.5 47.5L48.5 102.5C62.5 86.5 82 76.5 101 76.5C122.5 76.5 130.5 85 130.5 96C130.5 121 65.5 129.5 65.5 186C65.5 205 71.5 220.5 81 232ZM111.5 345C137 345 158.5 323.5 158.5 298C158.5 272.5 137 251 111.5 251C86 251 64.5 272.5 64.5 298C64.5 323.5 86 345 111.5 345Z" fill="#0000D6" fill-opacity="0.2"/>
</svg>
